# xmcd CD database file generated by OrangeCD 5.2
#
# Track frame offsets:
#	150
#	10370
#	24718
#	37118
#	47457
#	59851
#	71930
#	80105
#	93391
#	105979
#	115976
#	127886
#	139021
#	151389
#	164011
#	177509
#	190345
#	202010
#
# Disc length: 2837 seconds
#
# Revision: 0
# Processed by: cddbd v1.5.1PL0 Copyright (c) Steve Scherf et al.
# Submitted via: OrangeCD 5.2
#
DISCID=0c0b1312
DTITLE=Hank Williams - Honky Tonkin'
DYEAR=1900
DGENRE=Country
TTITLE0=Please Don't Let Me Love You
TTITLE1=Men With Broken Hearts
TTITLE2=Honky Tonkin'
TTITLE3=Why Don't You Love Me
TTITLE4=Move It On Over
TTITLE5=Just Waitin'
TTITLE6=Ready To Go Home
TTITLE7=I've Been Down That Road Before
TTITLE8=I'm So Lonesome I Could Cry
TTITLE9=Someday You'll Call My Name
TTITLE10=Long Gone Lonesome Blues
TTITLE11=Weary Blues From Waitin'
TTITLE12=Cold, Cold Heart
TTITLE13=There's A Tear In My Beer
TTITLE14=Too Many Parties And Too Many Pals
TTITLE15=Everything's Okay
TTITLE16=Kaw-Liga
TTITLE17=I Can't Help It (If I'm Still In Love With You)
EXTD=
EXTT0=
EXTT1=
EXTT2=
EXTT3=
EXTT4=
EXTT5=
EXTT6=
EXTT7=
EXTT8=
EXTT9=
EXTT10=
EXTT11=
EXTT12=
EXTT13=
EXTT14=
EXTT15=
EXTT16=
EXTT17=
PLAYORDER=
